<svg version="1.1" xmlns="http://www.w3.org/2000/svg" xmlns:xlink="http://www.w3.org/1999/xlink" width="528.3465" height="142.80464" viewBox="0,0,528.3465,142.80464"><g transform="translate(189.53806,76.51968)"><g data-paper-data="{&quot;isPaintingLayer&quot;:true}" stroke="none" stroke-width="1" stroke-linecap="square" stroke-linejoin="miter" stroke-miterlimit="10" stroke-dasharray="" stroke-dashoffset="0" style="mix-blend-mode: normal"><path d="M-189.53806,-76.51968h528.3465v64.62991h-528.3465z" fill-opacity="0" fill="#000000" fill-rule="evenodd"/><path d="M90.07974,9.68808v11.54688h-2.29687v-5.09375h-3.04687v5.09375h-2.29687v-11.54687h2.29688v4.54688h3.04688v-4.54687zM93.75162,15.45371c0,0.5625 0.02083,1.08854 0.0625,1.57813c0.05208,0.48958 0.14063,0.91667 0.26563,1.28125c0.13542,0.35417 0.31771,0.64063 0.54688,0.85938c0.23958,0.20833 0.5625,0.3125 0.96875,0.3125c0.38542,0 0.69792,-0.10417 0.9375,-0.3125c0.23958,-0.21875 0.42188,-0.51042 0.54688,-0.875c0.13542,-0.36458 0.22396,-0.78646 0.26563,-1.26562c0.05208,-0.48958 0.07813,-1.01562 0.07813,-1.57812c0,-0.5625 -0.02604,-1.08854 -0.07812,-1.57812c-0.04167,-0.48958 -0.13021,-0.91146 -0.26562,-1.26562c-0.125,-0.36458 -0.30729,-0.65104 -0.54687,-0.85937c-0.22917,-0.21875 -0.54167,-0.32812 -0.9375,-0.32812c-0.40625,0 -0.72917,0.10938 -0.96875,0.32813c-0.22917,0.20833 -0.41146,0.49479 -0.54687,0.85938c-0.125,0.36458 -0.21354,0.79167 -0.26562,1.28125c-0.04167,0.47917 -0.0625,1 -0.0625,1.5625zM91.42349,15.45371c0,-1.98958 0.36458,-3.48958 1.09375,-4.5c0.73958,-1.02083 1.76563,-1.53125 3.07813,-1.53125c1.35417,0 2.38542,0.51042 3.09375,1.53125c0.70833,1.01042 1.0625,2.51042 1.0625,4.5c0,1.98958 -0.36458,3.49479 -1.09375,4.51563c-0.71875,1.01042 -1.73437,1.51563 -3.04687,1.51563c-1.35417,0 -2.39062,-0.50521 -3.10937,-1.51562c-0.71875,-1.02083 -1.07812,-2.52604 -1.07812,-4.51562zM108.82974,21.23496h-7.25v-11.54687h2.3125v9.64063h4.9375zM112.87662,19.37558c0.0625,0.01042 0.13021,0.01563 0.20313,0.01563c0.08333,0 0.15625,0 0.21875,0c0.52083,0 0.95833,-0.09896 1.3125,-0.29687c0.35417,-0.19792 0.64063,-0.46875 0.85938,-0.8125c0.21875,-0.35417 0.375,-0.77083 0.46875,-1.25c0.09375,-0.47917 0.14063,-1.00521 0.14063,-1.57812c0,-0.5 -0.04167,-0.98437 -0.125,-1.45312c-0.07292,-0.47917 -0.20312,-0.89583 -0.39062,-1.25c-0.1875,-0.36458 -0.44271,-0.65625 -0.76562,-0.875c-0.32292,-0.21875 -0.73958,-0.32812 -1.25,-0.32812c-0.09375,0 -0.20312,0.00521 -0.32812,0.01563c-0.125,0.01042 -0.23958,0.02604 -0.34375,0.04688zM118.40787,15.45371c0,1.07292 -0.13542,1.98438 -0.40625,2.73438c-0.27083,0.75 -0.64062,1.36458 -1.10937,1.84375c-0.46875,0.46875 -1.03125,0.8125 -1.6875,1.03125c-0.65625,0.21875 -1.375,0.32813 -2.15625,0.32813c-0.40625,0 -0.80729,-0.02604 -1.20312,-0.07812c-0.39583,-0.04167 -0.81771,-0.10937 -1.26562,-0.20312v-11.28125c0.53125,-0.10417 1.02604,-0.17187 1.48438,-0.20312c0.45833,-0.04167 0.88542,-0.0625 1.28125,-0.0625c0.76042,0 1.45313,0.11458 2.07813,0.34375c0.63542,0.21875 1.16667,0.56771 1.59375,1.04688c0.4375,0.46875 0.77604,1.07813 1.01563,1.82813c0.25,0.73958 0.375,1.63021 0.375,2.67188zM137.09537,9.68808v1.90625h-3.03125v9.64063h-2.32812v-9.64062h-3.03125v-1.90625zM140.39224,15.45371c0,0.5625 0.02083,1.08854 0.0625,1.57813c0.05208,0.48958 0.14063,0.91667 0.26563,1.28125c0.13542,0.35417 0.31771,0.64063 0.54688,0.85938c0.23958,0.20833 0.5625,0.3125 0.96875,0.3125c0.38542,0 0.69792,-0.10417 0.9375,-0.3125c0.23958,-0.21875 0.42188,-0.51042 0.54688,-0.875c0.13542,-0.36458 0.22396,-0.78646 0.26563,-1.26562c0.05208,-0.48958 0.07813,-1.01562 0.07813,-1.57812c0,-0.5625 -0.02604,-1.08854 -0.07812,-1.57812c-0.04167,-0.48958 -0.13021,-0.91146 -0.26562,-1.26562c-0.125,-0.36458 -0.30729,-0.65104 -0.54687,-0.85937c-0.22917,-0.21875 -0.54167,-0.32812 -0.9375,-0.32812c-0.40625,0 -0.72917,0.10938 -0.96875,0.32813c-0.22917,0.20833 -0.41146,0.49479 -0.54687,0.85938c-0.125,0.36458 -0.21354,0.79167 -0.26562,1.28125c-0.04167,0.47917 -0.0625,1 -0.0625,1.5625zM138.06412,15.45371c0,-1.98958 0.36458,-3.48958 1.09375,-4.5c0.73958,-1.02083 1.76563,-1.53125 3.07813,-1.53125c1.35417,0 2.38542,0.51042 3.09375,1.53125c0.70833,1.01042 1.0625,2.51042 1.0625,4.5c0,1.98958 -0.36458,3.49479 -1.09375,4.51563c-0.71875,1.01042 -1.73437,1.51563 -3.04687,1.51563c-1.35417,0 -2.39062,-0.50521 -3.10937,-1.51562c-0.71875,-1.02083 -1.07812,-2.52604 -1.07812,-4.51562zM160.54849,19.56308c0.38542,0 0.70313,-0.04167 0.95313,-0.125c0.26042,-0.08333 0.46354,-0.19271 0.60938,-0.32812c0.15625,-0.14583 0.26042,-0.30729 0.3125,-0.48437c0.05208,-0.1875 0.07813,-0.375 0.07813,-0.5625c0,-0.23958 -0.06771,-0.44792 -0.20312,-0.625c-0.13542,-0.1875 -0.30729,-0.35417 -0.51562,-0.5c-0.20833,-0.14583 -0.44792,-0.27604 -0.71875,-0.39062c-0.26042,-0.125 -0.52083,-0.23437 -0.78125,-0.32812c-0.34375,-0.125 -0.70312,-0.26562 -1.07812,-0.42187c-0.375,-0.16667 -0.71354,-0.375 -1.01562,-0.625c-0.30208,-0.25 -0.55208,-0.55729 -0.75,-0.92187c-0.19792,-0.36458 -0.29687,-0.82292 -0.29687,-1.375c0,-1.08333 0.34896,-1.92708 1.04688,-2.53125c0.69792,-0.61458 1.66667,-0.92187 2.90625,-0.92187c0.70833,0 1.32292,0.08333 1.84375,0.25c0.53125,0.15625 0.97917,0.33333 1.34375,0.53125l-0.67187,1.78125c-0.3125,-0.17708 -0.66146,-0.32812 -1.04687,-0.45312c-0.375,-0.125 -0.8125,-0.1875 -1.3125,-0.1875c-1.21875,0 -1.82812,0.44271 -1.82812,1.32813c0,0.21875 0.0625,0.41667 0.1875,0.59375c0.125,0.16667 0.28125,0.31771 0.46875,0.45313c0.19792,0.125 0.41667,0.23958 0.65625,0.34375c0.25,0.09375 0.49479,0.18229 0.73438,0.26563c0.35417,0.13542 0.72396,0.29167 1.10938,0.46875c0.39583,0.16667 0.76042,0.39063 1.09375,0.67188c0.33333,0.27083 0.60417,0.61458 0.8125,1.03125c0.20833,0.41667 0.3125,0.94271 0.3125,1.57813c0,1.08333 -0.35417,1.92188 -1.0625,2.51563c-0.69792,0.59375 -1.76042,0.89063 -3.1875,0.89063c-0.95833,0 -1.72396,-0.10417 -2.29687,-0.3125c-0.57292,-0.20833 -1,-0.40104 -1.28125,-0.57812l0.67188,-1.85937c0.33333,0.19792 0.73438,0.38542 1.20313,0.5625c0.46875,0.17708 1.03646,0.26563 1.70313,0.26563zM174.40787,9.68808v1.90625h-3.03125v9.64063h-2.32812v-9.64062h-3.03125v-1.90625zM177.70474,15.45371c0,0.5625 0.02083,1.08854 0.0625,1.57813c0.05208,0.48958 0.14063,0.91667 0.26563,1.28125c0.13542,0.35417 0.31771,0.64063 0.54688,0.85938c0.23958,0.20833 0.5625,0.3125 0.96875,0.3125c0.38542,0 0.69792,-0.10417 0.9375,-0.3125c0.23958,-0.21875 0.42188,-0.51042 0.54688,-0.875c0.13542,-0.36458 0.22396,-0.78646 0.26563,-1.26562c0.05208,-0.48958 0.07813,-1.01562 0.07813,-1.57812c0,-0.5625 -0.02604,-1.08854 -0.07812,-1.57812c-0.04167,-0.48958 -0.13021,-0.91146 -0.26562,-1.26562c-0.125,-0.36458 -0.30729,-0.65104 -0.54687,-0.85937c-0.22917,-0.21875 -0.54167,-0.32812 -0.9375,-0.32812c-0.40625,0 -0.72917,0.10938 -0.96875,0.32813c-0.22917,0.20833 -0.41146,0.49479 -0.54687,0.85938c-0.125,0.36458 -0.21354,0.79167 -0.26562,1.28125c-0.04167,0.47917 -0.0625,1 -0.0625,1.5625zM175.37662,15.45371c0,-1.98958 0.36458,-3.48958 1.09375,-4.5c0.73958,-1.02083 1.76563,-1.53125 3.07813,-1.53125c1.35417,0 2.38542,0.51042 3.09375,1.53125c0.70833,1.01042 1.0625,2.51042 1.0625,4.5c0,1.98958 -0.36458,3.49479 -1.09375,4.51563c-0.71875,1.01042 -1.73437,1.51563 -3.04687,1.51563c-1.35417,0 -2.39062,-0.50521 -3.10937,-1.51562c-0.71875,-1.02083 -1.07812,-2.52604 -1.07812,-4.51562zM188.37662,9.56308c1.46875,0 2.60938,0.30208 3.42188,0.90625c0.8125,0.59375 1.21875,1.57813 1.21875,2.95313c0,1.375 -0.41146,2.36979 -1.23437,2.98438c-0.8125,0.61458 -1.96354,0.92188 -3.45312,0.92188h-0.82812v3.90625h-2.29687v-11.40625c0.22917,-0.04167 0.48438,-0.07812 0.76563,-0.10937c0.28125,-0.04167 0.5625,-0.07292 0.84375,-0.09375c0.29167,-0.02083 0.57292,-0.03646 0.84375,-0.04687c0.27083,-0.01042 0.51042,-0.01562 0.71875,-0.01562zM188.64224,11.54746c-0.13542,0 -0.32812,0.00521 -0.57812,0.01563c-0.23958,0.01042 -0.42708,0.02604 -0.5625,0.04688v3.73438h0.9375c0.72917,0 1.28125,-0.14583 1.65625,-0.4375c0.375,-0.29167 0.5625,-0.79167 0.5625,-1.5c0,-0.67708 -0.18229,-1.15625 -0.54687,-1.4375c-0.36458,-0.28125 -0.85417,-0.42187 -1.46875,-0.42187zM205.86099,9.68808c0.09375,0.26042 0.20313,0.59896 0.32813,1.01563c0.13542,0.40625 0.27604,0.84896 0.42188,1.32813c0.14583,0.46875 0.29167,0.94792 0.4375,1.4375c0.15625,0.47917 0.30208,0.92188 0.4375,1.32813c0.14583,-0.45833 0.29688,-0.93229 0.45313,-1.42187c0.16667,-0.48958 0.32292,-0.96354 0.46875,-1.42187c0.15625,-0.45833 0.29688,-0.88542 0.42188,-1.28125c0.125,-0.39583 0.23958,-0.72396 0.34375,-0.98437h1.89063c0.09375,1.01042 0.17708,1.99479 0.25,2.95313c0.08333,0.95833 0.15104,1.90625 0.20313,2.84375c0.0625,0.9375 0.10938,1.88021 0.14063,2.82813c0.04167,0.94792 0.07813,1.92188 0.10938,2.92188h-2.10937l0.10938,-8.96875l-1.42187,4.89063h-1.67187l-1.375,-4.89062l0.09375,8.96875h-2.10937c0.04167,-0.94792 0.08333,-1.93229 0.125,-2.95312c0.04167,-1.02083 0.08854,-2.03125 0.14063,-3.03125c0.05208,-1.01042 0.10938,-1.98437 0.17188,-2.92187c0.07292,-0.94792 0.15104,-1.82812 0.23438,-2.64062zM213.36099,21.23496v-11.54687h7v1.90625h-4.70312v2.59375h4.09375v1.89063h-4.09375v3.25h5.10938v1.90625zM230.09537,21.23496h-7.25v-11.54687h2.3125v9.64063h4.9375zM239.70474,9.68808v1.90625h-3.03125v9.64063h-2.32812v-9.64062h-3.03125v-1.90625zM243.47037,19.37558c0.0625,0.01042 0.13021,0.01563 0.20313,0.01563c0.08333,0 0.15625,0 0.21875,0c0.52083,0 0.95833,-0.09896 1.3125,-0.29687c0.35417,-0.19792 0.64063,-0.46875 0.85938,-0.8125c0.21875,-0.35417 0.375,-0.77083 0.46875,-1.25c0.09375,-0.47917 0.14063,-1.00521 0.14063,-1.57812c0,-0.5 -0.04167,-0.98437 -0.125,-1.45312c-0.07292,-0.47917 -0.20312,-0.89583 -0.39062,-1.25c-0.1875,-0.36458 -0.44271,-0.65625 -0.76562,-0.875c-0.32292,-0.21875 -0.73958,-0.32812 -1.25,-0.32812c-0.09375,0 -0.20312,0.00521 -0.32812,0.01563c-0.125,0.01042 -0.23958,0.02604 -0.34375,0.04688zM249.00162,15.45371c0,1.07292 -0.13542,1.98438 -0.40625,2.73438c-0.27083,0.75 -0.64062,1.36458 -1.10937,1.84375c-0.46875,0.46875 -1.03125,0.8125 -1.6875,1.03125c-0.65625,0.21875 -1.375,0.32813 -2.15625,0.32813c-0.40625,0 -0.80729,-0.02604 -1.20312,-0.07812c-0.39583,-0.04167 -0.81771,-0.10937 -1.26562,-0.20312v-11.28125c0.53125,-0.10417 1.02604,-0.17187 1.48438,-0.20312c0.45833,-0.04167 0.88542,-0.0625 1.28125,-0.0625c0.76042,0 1.45313,0.11458 2.07813,0.34375c0.63542,0.21875 1.16667,0.56771 1.59375,1.04688c0.4375,0.46875 0.77604,1.07813 1.01563,1.82813c0.25,0.73958 0.375,1.63021 0.375,2.67188zM252.32974,15.45371c0,0.5625 0.02083,1.08854 0.0625,1.57813c0.05208,0.48958 0.14063,0.91667 0.26563,1.28125c0.13542,0.35417 0.31771,0.64063 0.54688,0.85938c0.23958,0.20833 0.5625,0.3125 0.96875,0.3125c0.38542,0 0.69792,-0.10417 0.9375,-0.3125c0.23958,-0.21875 0.42188,-0.51042 0.54688,-0.875c0.13542,-0.36458 0.22396,-0.78646 0.26563,-1.26562c0.05208,-0.48958 0.07813,-1.01562 0.07813,-1.57812c0,-0.5625 -0.02604,-1.08854 -0.07812,-1.57812c-0.04167,-0.48958 -0.13021,-0.91146 -0.26562,-1.26562c-0.125,-0.36458 -0.30729,-0.65104 -0.54687,-0.85937c-0.22917,-0.21875 -0.54167,-0.32812 -0.9375,-0.32812c-0.40625,0 -0.72917,0.10938 -0.96875,0.32813c-0.22917,0.20833 -0.41146,0.49479 -0.54687,0.85938c-0.125,0.36458 -0.21354,0.79167 -0.26562,1.28125c-0.04167,0.47917 -0.0625,1 -0.0625,1.5625zM250.00162,15.45371c0,-1.98958 0.36458,-3.48958 1.09375,-4.5c0.73958,-1.02083 1.76563,-1.53125 3.07813,-1.53125c1.35417,0 2.38542,0.51042 3.09375,1.53125c0.70833,1.01042 1.0625,2.51042 1.0625,4.5c0,1.98958 -0.36458,3.49479 -1.09375,4.51563c-0.71875,1.01042 -1.73437,1.51563 -3.04687,1.51563c-1.35417,0 -2.39062,-0.50521 -3.10937,-1.51562c-0.71875,-1.02083 -1.07812,-2.52604 -1.07812,-4.51562zM264.34537,13.76621c0.05208,0.23958 0.125,0.53646 0.21875,0.89063c0.10417,0.34375 0.21354,0.72917 0.32813,1.15625c0.125,0.41667 0.25521,0.86979 0.39063,1.35938c0.14583,0.47917 0.29167,0.97396 0.4375,1.48438c0,-0.64583 -0.01042,-1.33854 -0.03125,-2.07812c-0.01042,-0.73958 -0.02083,-1.49479 -0.03125,-2.26562c-0.01042,-0.77083 -0.02604,-1.55208 -0.04687,-2.34375c-0.01042,-0.79167 -0.01562,-1.55208 -0.01562,-2.28125h2.14063c-0.04167,0.94792 -0.08333,1.92188 -0.125,2.92188c-0.03125,1 -0.07292,1.99479 -0.125,2.98438c-0.05208,0.98958 -0.11458,1.96354 -0.1875,2.92188c-0.0625,0.95833 -0.13542,1.86458 -0.21875,2.71875h-1.90625c-0.27083,-0.78125 -0.54687,-1.61979 -0.82812,-2.51562c-0.27083,-0.90625 -0.54167,-1.77083 -0.8125,-2.59375c-0.27083,0.78125 -0.55729,1.63542 -0.85937,2.5625c-0.30208,0.91667 -0.57812,1.76563 -0.82812,2.54688h-1.89062c-0.10417,-0.85417 -0.19271,-1.76042 -0.26562,-2.71875c-0.07292,-0.96875 -0.14062,-1.94792 -0.20312,-2.9375c-0.05208,-0.98958 -0.09896,-1.98437 -0.14062,-2.98437c-0.03125,-1.01042 -0.0625,-1.97917 -0.09375,-2.90625h2.14063c-0.02083,0.72917 -0.03646,1.48958 -0.04687,2.28125c-0.01042,0.78125 -0.02083,1.5625 -0.03125,2.34375c-0.01042,0.77083 -0.02604,1.52604 -0.04687,2.26563c-0.01042,0.73958 -0.01562,1.43229 -0.01562,2.07813c0.11458,-0.39583 0.23958,-0.82812 0.375,-1.29687c0.14583,-0.47917 0.28646,-0.94792 0.42188,-1.40625c0.13542,-0.45833 0.25521,-0.88021 0.35938,-1.26562c0.11458,-0.38542 0.20313,-0.69271 0.26563,-0.92187zM274.78283,21.23496c-0.52083,-1.28125 -1.08854,-2.55729 -1.70312,-3.82812c-0.61458,-1.28125 -1.28124,-2.5625 -1.99997,-3.84375v7.67188h-2.0625v-11.54687h1.84375c0.35417,0.54167 0.70313,1.13542 1.04688,1.78125c0.34373,0.63542 0.68226,1.27083 1.01559,1.90625c0.33333,0.63542 0.63542,1.25521 0.90625,1.85938c0.28125,0.59375 0.52604,1.11458 0.73438,1.5625v-7.10937h2.0625v11.54688z" fill="#000000" fill-rule="nonzero"/><path d="M91.77505,36.16621c0.05208,0.23958 0.125,0.53646 0.21875,0.89063c0.10417,0.34375 0.21354,0.72917 0.32813,1.15625c0.125,0.41667 0.25521,0.86979 0.39063,1.35938c0.14583,0.47917 0.29167,0.97396 0.4375,1.48438c0,-0.64583 -0.01042,-1.33854 -0.03125,-2.07812c-0.01042,-0.73958 -0.02083,-1.49479 -0.03125,-2.26562c-0.01042,-0.77083 -0.02604,-1.55208 -0.04687,-2.34375c-0.01042,-0.79167 -0.01562,-1.55208 -0.01562,-2.28125h2.14063c-0.04167,0.94792 -0.08333,1.92188 -0.125,2.92188c-0.03125,1 -0.07292,1.99479 -0.125,2.98438c-0.05208,0.98958 -0.11458,1.96354 -0.1875,2.92188c-0.0625,0.95833 -0.13542,1.86458 -0.21875,2.71875h-1.90625c-0.27083,-0.78125 -0.54687,-1.61979 -0.82812,-2.51562c-0.27083,-0.90625 -0.54167,-1.77083 -0.8125,-2.59375c-0.27083,0.78125 -0.55729,1.63542 -0.85937,2.5625c-0.30208,0.91667 -0.57812,1.76563 -0.82812,2.54688h-1.89062c-0.10417,-0.85417 -0.19271,-1.76042 -0.26562,-2.71875c-0.07292,-0.96875 -0.14062,-1.94792 -0.20312,-2.9375c-0.05208,-0.98958 -0.09896,-1.98437 -0.14062,-2.98437c-0.03125,-1.01042 -0.0625,-1.97917 -0.09375,-2.90625h2.14063c-0.02083,0.72917 -0.03646,1.48958 -0.04687,2.28125c-0.01042,0.78125 -0.02083,1.5625 -0.03125,2.34375c-0.01042,0.77083 -0.02604,1.52604 -0.04687,2.26563c-0.01042,0.73958 -0.01562,1.43229 -0.01562,2.07813c0.11458,-0.39583 0.23958,-0.82812 0.375,-1.29687c0.14583,-0.47917 0.28646,-0.94792 0.42188,-1.40625c0.13542,-0.45833 0.25521,-0.88021 0.35938,-1.26562c0.11458,-0.38542 0.20313,-0.69271 0.26563,-0.92187zM102.29068,43.63496l-0.54687,-2.67187h-3.07812l-0.51562,2.67188h-2.39062c0.54167,-2.28125 1.09375,-4.35417 1.65625,-6.21875c0.5625,-1.875 1.10417,-3.65104 1.625,-5.32812h2.5c0.54167,1.6875 1.08333,3.47917 1.625,5.375c0.54167,1.89583 1.06771,3.95313 1.57813,6.17188zM100.22818,34.32246c-0.125,0.4375 -0.23958,0.85417 -0.34375,1.25c-0.10417,0.38542 -0.20312,0.77083 -0.29687,1.15625c-0.09375,0.375 -0.18229,0.75521 -0.26562,1.14063c-0.07292,0.38542 -0.15104,0.78125 -0.23437,1.1875h2.26563c-0.07292,-0.40625 -0.15104,-0.80208 -0.23437,-1.1875c-0.07292,-0.38542 -0.15625,-0.76562 -0.25,-1.14062c-0.08333,-0.38542 -0.18229,-0.77083 -0.29687,-1.15625c-0.10417,-0.39583 -0.21875,-0.8125 -0.34375,-1.25zM105.91568,43.63496v-1.90625h2.53125v-7.73437h-2.53125v-1.90625h7.34375v1.90625h-2.5v7.73438h2.5v1.90625zM123.10318,32.08809v1.90625h-3.03125v9.64063h-2.32812v-9.64062h-3.03125v-1.90625zM124.57193,43.63496v-1.90625h2.53125v-7.73437h-2.53125v-1.90625h7.34375v1.90625h-2.5v7.73438h2.5v1.90625zM139.52505,43.63496c-0.52083,-1.28125 -1.08854,-2.55729 -1.70312,-3.82812c-0.61458,-1.28125 -1.28125,-2.5625 -2,-3.84375v7.67188h-2.0625v-11.54687h1.84375c0.35417,0.54167 0.70313,1.13542 1.04688,1.78125c0.34375,0.63542 0.68229,1.27083 1.01563,1.90625c0.33333,0.63542 0.63542,1.25521 0.90625,1.85938c0.28125,0.59375 0.52604,1.11458 0.73438,1.5625v-7.10937h2.0625v11.54688zM148.0563,33.82246c-0.55208,0 -1.01562,0.09896 -1.39062,0.29688c-0.375,0.19792 -0.68229,0.47396 -0.92187,0.82813c-0.23958,0.35417 -0.41667,0.78125 -0.53125,1.28125c-0.10417,0.48958 -0.15625,1.03125 -0.15625,1.625c0,1.375 0.21875,2.39063 0.65625,3.04688c0.4375,0.65625 1.07813,0.98438 1.92188,0.98438c0.13542,0 0.28125,-0.00521 0.4375,-0.01562c0.16667,-0.02083 0.32292,-0.04167 0.46875,-0.0625v-4.21875h2.28125v5.76563c-0.27083,0.10417 -0.69792,0.21875 -1.28125,0.34375c-0.57292,0.125 -1.27083,0.1875 -2.09375,0.1875c-0.71875,0 -1.36979,-0.125 -1.95312,-0.375c-0.57292,-0.26042 -1.06771,-0.64062 -1.48437,-1.14062c-0.40625,-0.51042 -0.72396,-1.14062 -0.95312,-1.89062c-0.21875,-0.76042 -0.32812,-1.63542 -0.32812,-2.625c0,-0.97917 0.13021,-1.84375 0.39063,-2.59375c0.26042,-0.76042 0.61458,-1.39583 1.0625,-1.90625c0.44792,-0.51042 0.97396,-0.89062 1.57813,-1.14062c0.61458,-0.26042 1.27083,-0.39062 1.96875,-0.39062c0.44792,0 0.84896,0.03646 1.20313,0.10938c0.35417,0.0625 0.66146,0.14063 0.92188,0.23438c0.26042,0.08333 0.47396,0.17708 0.64063,0.28125c0.17708,0.09375 0.30729,0.16667 0.39063,0.21875l-0.59375,1.82813c-0.27083,-0.17708 -0.60937,-0.33333 -1.01562,-0.46875c-0.39583,-0.13542 -0.80208,-0.20312 -1.21875,-0.20312zM162.0563,43.63496v-11.54687h7.07813v1.90625h-4.78125v2.79688h4.1875v1.90625h-4.1875v4.9375zM173.04068,37.85371c0,0.5625 0.02083,1.08854 0.0625,1.57813c0.05208,0.48958 0.14063,0.91667 0.26563,1.28125c0.13542,0.35417 0.31771,0.64063 0.54688,0.85938c0.23958,0.20833 0.5625,0.3125 0.96875,0.3125c0.38542,0 0.69792,-0.10417 0.9375,-0.3125c0.23958,-0.21875 0.42188,-0.51042 0.54688,-0.875c0.13542,-0.36458 0.22396,-0.78646 0.26563,-1.26562c0.05208,-0.48958 0.07813,-1.01562 0.07813,-1.57812c0,-0.5625 -0.02604,-1.08854 -0.07812,-1.57812c-0.04167,-0.48958 -0.13021,-0.91146 -0.26562,-1.26562c-0.125,-0.36458 -0.30729,-0.65104 -0.54687,-0.85937c-0.22917,-0.21875 -0.54167,-0.32812 -0.9375,-0.32812c-0.40625,0 -0.72917,0.10938 -0.96875,0.32813c-0.22917,0.20833 -0.41146,0.49479 -0.54687,0.85938c-0.125,0.36458 -0.21354,0.79167 -0.26562,1.28125c-0.04167,0.47917 -0.0625,1 -0.0625,1.5625zM170.71255,37.85371c0,-1.98958 0.36458,-3.48958 1.09375,-4.5c0.73958,-1.02083 1.76563,-1.53125 3.07813,-1.53125c1.35417,0 2.38542,0.51042 3.09375,1.53125c0.70833,1.01042 1.0625,2.51042 1.0625,4.5c0,1.98958 -0.36458,3.49479 -1.09375,4.51563c-0.71875,1.01042 -1.73437,1.51563 -3.04687,1.51563c-1.35417,0 -2.39062,-0.50521 -3.10937,-1.51562c-0.71875,-1.02083 -1.07812,-2.52604 -1.07812,-4.51562zM183.54068,31.96309c0.65625,0 1.25,0.07292 1.78125,0.21875c0.53125,0.14583 0.98958,0.375 1.375,0.6875c0.39583,0.3125 0.69271,0.70833 0.89063,1.1875c0.20833,0.47917 0.3125,1.04167 0.3125,1.6875c0,0.66667 -0.14062,1.27604 -0.42187,1.82813c-0.27083,0.54167 -0.72396,0.95833 -1.35937,1.25c0.21875,0.32292 0.44271,0.68229 0.67188,1.07813c0.23958,0.38542 0.46875,0.79688 0.6875,1.23438c0.22917,0.42708 0.44792,0.85417 0.65625,1.28125c0.20833,0.42708 0.38542,0.83333 0.53125,1.21875h-2.40625c-0.29167,-0.75 -0.625,-1.46875 -1,-2.15625c-0.375,-0.6875 -0.78125,-1.38542 -1.21875,-2.09375h-1.20312v4.25h-2.29687v-11.375c0.22917,-0.05208 0.47396,-0.09896 0.73438,-0.14062c0.27083,-0.04167 0.54167,-0.07292 0.8125,-0.09375c0.28125,-0.02083 0.54688,-0.03646 0.79688,-0.04687c0.25,-0.01042 0.46875,-0.01562 0.65625,-0.01562zM185.57193,35.72871c0,-0.61458 -0.1875,-1.0625 -0.5625,-1.34375c-0.375,-0.29167 -0.86458,-0.4375 -1.46875,-0.4375c-0.09375,0 -0.20312,0.00521 -0.32812,0.01563c-0.125,0.01042 -0.25,0.02604 -0.375,0.04688v3.46875h0.51563c0.78125,0 1.34375,-0.15104 1.6875,-0.45312c0.35417,-0.3125 0.53125,-0.74479 0.53125,-1.29687zM206.29068,35.13496c0,0.39583 -0.07292,0.77604 -0.21875,1.14063c-0.14583,0.36458 -0.34375,0.72396 -0.59375,1.07813c-0.25,0.34375 -0.53125,0.67708 -0.84375,1c-0.3125,0.32292 -0.63021,0.63542 -0.95312,0.9375c-0.15625,0.14583 -0.34375,0.32292 -0.5625,0.53125c-0.20833,0.20833 -0.40625,0.42188 -0.59375,0.64063c-0.1875,0.20833 -0.34896,0.42708 -0.48437,0.65625c-0.125,0.21875 -0.1875,0.42188 -0.1875,0.60938h4.96875v1.90625h-7.54687c-0.03125,-0.125 -0.04687,-0.28125 -0.04687,-0.46875c0.01042,-0.1875 0.01563,-0.31771 0.01563,-0.39062c0,-0.625 0.11458,-1.19792 0.34375,-1.71875c0.22917,-0.52083 0.52083,-1 0.875,-1.4375c0.35417,-0.44792 0.73438,-0.85937 1.14063,-1.23437c0.40625,-0.38542 0.78646,-0.75 1.14063,-1.09375c0.35417,-0.34375 0.64583,-0.67708 0.875,-1c0.22917,-0.32292 0.34375,-0.65625 0.34375,-1c0,-0.46875 -0.14583,-0.82812 -0.4375,-1.07812c-0.28125,-0.26042 -0.64062,-0.39062 -1.07812,-0.39062c-0.35417,0 -0.73437,0.08854 -1.14062,0.26563c-0.39583,0.16667 -0.78646,0.45833 -1.17187,0.875l-1.14062,-1.60937c0.5,-0.52083 1.07292,-0.90625 1.71875,-1.15625c0.65625,-0.25 1.3125,-0.375 1.96875,-0.375c0.46875,0 0.92188,0.06771 1.35938,0.20313c0.4375,0.13542 0.82292,0.34375 1.15625,0.625c0.33333,0.27083 0.59896,0.61458 0.79688,1.03125c0.19792,0.41667 0.29688,0.90104 0.29688,1.45313zM214.15005,43.63496c-0.52083,-1.28125 -1.08854,-2.55729 -1.70312,-3.82812c-0.61458,-1.28125 -1.28125,-2.5625 -2,-3.84375v7.67188h-2.0625v-11.54687h1.84375c0.35417,0.54167 0.70313,1.13542 1.04688,1.78125c0.34375,0.63542 0.68229,1.27083 1.01563,1.90625c0.33333,0.63542 0.63542,1.25521 0.90625,1.85938c0.28125,0.59375 0.52604,1.11458 0.73438,1.5625v-7.10937h2.0625v11.54688zM220.15005,41.77559c0.0625,0.01042 0.13021,0.01563 0.20313,0.01563c0.08333,0 0.15625,0 0.21875,0c0.52083,0 0.95833,-0.09896 1.3125,-0.29687c0.35417,-0.19792 0.64063,-0.46875 0.85938,-0.8125c0.21875,-0.35417 0.375,-0.77083 0.46875,-1.25c0.09375,-0.47917 0.14063,-1.00521 0.14063,-1.57812c0,-0.5 -0.04167,-0.98437 -0.125,-1.45312c-0.07292,-0.47917 -0.20312,-0.89583 -0.39062,-1.25c-0.1875,-0.36458 -0.44271,-0.65625 -0.76562,-0.875c-0.32292,-0.21875 -0.73958,-0.32812 -1.25,-0.32812c-0.09375,0 -0.20312,0.00521 -0.32812,0.01563c-0.125,0.01042 -0.23958,0.02604 -0.34375,0.04688zM225.6813,37.85371c0,1.07292 -0.13542,1.98438 -0.40625,2.73438c-0.27083,0.75 -0.64062,1.36458 -1.10937,1.84375c-0.46875,0.46875 -1.03125,0.8125 -1.6875,1.03125c-0.65625,0.21875 -1.375,0.32813 -2.15625,0.32813c-0.40625,0 -0.80729,-0.02604 -1.20312,-0.07812c-0.39583,-0.04167 -0.81771,-0.10937 -1.26562,-0.20312v-11.28125c0.53125,-0.10417 1.02604,-0.17187 1.48438,-0.20312c0.45833,-0.04167 0.88542,-0.0625 1.28125,-0.0625c0.76042,0 1.45313,0.11458 2.07813,0.34375c0.63542,0.21875 1.16667,0.56771 1.59375,1.04688c0.4375,0.46875 0.77604,1.07813 1.01563,1.82813c0.25,0.73958 0.375,1.63021 0.375,2.67188zM240.13443,43.88496c-0.75,0 -1.375,-0.10417 -1.875,-0.3125c-0.5,-0.20833 -0.90104,-0.50521 -1.20312,-0.89062c-0.30208,-0.38542 -0.51562,-0.84896 -0.64062,-1.39062c-0.11458,-0.55208 -0.17187,-1.16146 -0.17187,-1.82812v-7.375h2.3125v7.21875c0,0.48958 0.02083,0.90104 0.0625,1.23438c0.05208,0.32292 0.13542,0.58333 0.25,0.78125c0.125,0.19792 0.29167,0.34375 0.5,0.4375c0.20833,0.08333 0.47917,0.125 0.8125,0.125c0.32292,0 0.58854,-0.04167 0.79688,-0.125c0.20833,-0.09375 0.375,-0.23958 0.5,-0.4375c0.125,-0.20833 0.21354,-0.47917 0.26563,-0.8125c0.05208,-0.33333 0.07813,-0.73958 0.07813,-1.21875v-7.20312h2.28125v7.375c0,0.66667 -0.0625,1.27604 -0.1875,1.82813c-0.11458,0.54167 -0.32812,1.00521 -0.64062,1.39063c-0.3125,0.38542 -0.72396,0.68229 -1.23437,0.89063c-0.51042,0.20833 -1.14583,0.3125 -1.90625,0.3125zM249.16568,41.96309c0.38542,0 0.70313,-0.04167 0.95313,-0.125c0.26042,-0.08333 0.46354,-0.19271 0.60938,-0.32812c0.15625,-0.14583 0.26042,-0.30729 0.3125,-0.48437c0.05208,-0.1875 0.07813,-0.375 0.07813,-0.5625c0,-0.23958 -0.06771,-0.44792 -0.20312,-0.625c-0.13542,-0.1875 -0.30729,-0.35417 -0.51562,-0.5c-0.20833,-0.14583 -0.44792,-0.27604 -0.71875,-0.39062c-0.26042,-0.125 -0.52083,-0.23437 -0.78125,-0.32812c-0.34375,-0.125 -0.70312,-0.26562 -1.07812,-0.42187c-0.375,-0.16667 -0.71354,-0.375 -1.01562,-0.625c-0.30208,-0.25 -0.55208,-0.55729 -0.75,-0.92187c-0.19792,-0.36458 -0.29687,-0.82292 -0.29687,-1.375c0,-1.08333 0.34896,-1.92708 1.04688,-2.53125c0.69792,-0.61458 1.66667,-0.92187 2.90625,-0.92187c0.70833,0 1.32292,0.08333 1.84375,0.25c0.53125,0.15625 0.97917,0.33333 1.34375,0.53125l-0.67187,1.78125c-0.3125,-0.17708 -0.66146,-0.32812 -1.04687,-0.45312c-0.375,-0.125 -0.8125,-0.1875 -1.3125,-0.1875c-1.21875,0 -1.82812,0.44271 -1.82812,1.32813c0,0.21875 0.0625,0.41667 0.1875,0.59375c0.125,0.16667 0.28125,0.31771 0.46875,0.45313c0.19792,0.125 0.41667,0.23958 0.65625,0.34375c0.25,0.09375 0.49479,0.18229 0.73438,0.26563c0.35417,0.13542 0.72396,0.29167 1.10938,0.46875c0.39583,0.16667 0.76042,0.39063 1.09375,0.67188c0.33333,0.27083 0.60417,0.61458 0.8125,1.03125c0.20833,0.41667 0.3125,0.94271 0.3125,1.57813c0,1.08333 -0.35417,1.92188 -1.0625,2.51563c-0.69792,0.59375 -1.76042,0.89063 -3.1875,0.89063c-0.95833,0 -1.72396,-0.10417 -2.29687,-0.3125c-0.57292,-0.20833 -1,-0.40104 -1.28125,-0.57812l0.67188,-1.85937c0.33333,0.19792 0.73438,0.38542 1.20313,0.5625c0.46875,0.17708 1.03646,0.26563 1.70313,0.26563zM255.33755,43.63496v-11.54687h7v1.90625h-4.70312v2.59375h4.09375v1.89063h-4.09375v3.25h5.10938v1.90625zM267.4938,31.96309c0.65625,0 1.25,0.07292 1.78125,0.21875c0.53125,0.14583 0.98958,0.375 1.375,0.6875c0.39583,0.3125 0.69271,0.70833 0.89063,1.1875c0.20833,0.47917 0.3125,1.04167 0.3125,1.6875c0,0.66667 -0.14062,1.27604 -0.42187,1.82813c-0.27083,0.54167 -0.72396,0.95833 -1.35937,1.25c0.21875,0.32292 0.44271,0.68229 0.67188,1.07813c0.23958,0.38542 0.46875,0.79688 0.6875,1.23438c0.22917,0.42708 0.44791,0.85417 0.65622,1.28125c0.20833,0.42708 0.38542,0.83333 0.53125,1.21875h-2.40622c-0.29167,-0.75 -0.625,-1.46875 -1,-2.15625c-0.375,-0.6875 -0.78125,-1.38542 -1.21875,-2.09375h-1.20312v4.25h-2.29687v-11.375c0.22917,-0.05208 0.47396,-0.09896 0.73438,-0.14062c0.27083,-0.04167 0.54167,-0.07292 0.8125,-0.09375c0.28125,-0.02083 0.54688,-0.03646 0.79688,-0.04687c0.25,-0.01042 0.46875,-0.01562 0.65625,-0.01562zM269.52505,35.72871c0,-0.61458 -0.1875,-1.0625 -0.5625,-1.34375c-0.375,-0.29167 -0.86458,-0.4375 -1.46875,-0.4375c-0.09375,0 -0.20312,0.00521 -0.32812,0.01563c-0.125,0.01042 -0.25,0.02604 -0.375,0.04688v3.46875h0.51563c0.78125,0 1.34375,-0.15104 1.6875,-0.45312c0.35417,-0.3125 0.53125,-0.74479 0.53125,-1.29687z" fill="#000000" fill-rule="nonzero"/><path d="M118.2438,54.36308c0.65625,0 1.25,0.07292 1.78125,0.21875c0.53125,0.14583 0.98958,0.375 1.375,0.6875c0.39583,0.3125 0.69271,0.70833 0.89063,1.1875c0.20833,0.47917 0.3125,1.04167 0.3125,1.6875c0,0.66667 -0.14062,1.27604 -0.42187,1.82813c-0.27083,0.54167 -0.72396,0.95833 -1.35937,1.25c0.21875,0.32292 0.44271,0.68229 0.67188,1.07813c0.23958,0.38542 0.46875,0.79688 0.6875,1.23438c0.22917,0.42708 0.44792,0.85417 0.65625,1.28125c0.20833,0.42708 0.38542,0.83333 0.53125,1.21875h-2.40625c-0.29167,-0.75 -0.625,-1.46875 -1,-2.15625c-0.375,-0.6875 -0.78125,-1.38542 -1.21875,-2.09375h-1.20312v4.25h-2.29687v-11.375c0.22917,-0.05208 0.47396,-0.09896 0.73438,-0.14062c0.27083,-0.04167 0.54167,-0.07292 0.8125,-0.09375c0.28125,-0.02083 0.54688,-0.03646 0.79688,-0.04687c0.25,-0.01042 0.46875,-0.01562 0.65625,-0.01562zM120.27505,58.12871c0,-0.61458 -0.1875,-1.0625 -0.5625,-1.34375c-0.375,-0.29167 -0.86458,-0.4375 -1.46875,-0.4375c-0.09375,0 -0.20312,0.00521 -0.32812,0.01563c-0.125,0.01042 -0.25,0.02604 -0.375,0.04688v3.46875h0.51563c0.78125,0 1.34375,-0.15104 1.6875,-0.45312c0.35417,-0.3125 0.53125,-0.74479 0.53125,-1.29687zM124.7438,66.03496v-11.54687h7v1.90625h-4.70312v2.59375h4.09375v1.89063h-4.09375v3.25h5.10938v1.90625zM139.60318,66.03496l-0.54687,-2.67187h-3.07812l-0.51562,2.67188h-2.39062c0.54167,-2.28125 1.09375,-4.35417 1.65625,-6.21875c0.5625,-1.875 1.10417,-3.65104 1.625,-5.32812h2.5c0.54167,1.6875 1.08333,3.47917 1.625,5.375c0.54167,1.89583 1.06771,3.95313 1.57813,6.17188zM137.54068,56.72246c-0.125,0.4375 -0.23958,0.85417 -0.34375,1.25c-0.10417,0.38542 -0.20312,0.77083 -0.29687,1.15625c-0.09375,0.375 -0.18229,0.75521 -0.26562,1.14063c-0.07292,0.38542 -0.15104,0.78125 -0.23437,1.1875h2.26563c-0.07292,-0.40625 -0.15104,-0.80208 -0.23437,-1.1875c-0.07292,-0.38542 -0.15625,-0.76562 -0.25,-1.14062c-0.08333,-0.38542 -0.18229,-0.77083 -0.29687,-1.15625c-0.10417,-0.39583 -0.21875,-0.8125 -0.34375,-1.25zM147.7438,66.28496c-1.625,0 -2.86979,-0.52083 -3.73437,-1.5625c-0.85417,-1.05208 -1.28125,-2.54167 -1.28125,-4.46875c0,-0.95833 0.13021,-1.80729 0.39063,-2.54687c0.26042,-0.75 0.625,-1.38021 1.09375,-1.89062c0.46875,-0.52083 1.02083,-0.91667 1.65625,-1.1875c0.64583,-0.27083 1.34896,-0.40625 2.10938,-0.40625c0.40625,0 0.77083,0.03646 1.09375,0.10938c0.33333,0.0625 0.625,0.14063 0.875,0.23438c0.25,0.08333 0.45833,0.17708 0.625,0.28125c0.16667,0.09375 0.29688,0.16667 0.39063,0.21875l-0.59375,1.82813c-0.29167,-0.1875 -0.64062,-0.34375 -1.04687,-0.46875c-0.39583,-0.13542 -0.85937,-0.20312 -1.39062,-0.20312c-0.35417,0 -0.70312,0.06771 -1.04687,0.20313c-0.34375,0.125 -0.65104,0.34375 -0.92187,0.65625c-0.26042,0.30208 -0.47917,0.70833 -0.65625,1.21875c-0.16667,0.5 -0.25,1.13021 -0.25,1.89063c0,1.32292 0.22917,2.33854 0.6875,3.04688c0.45833,0.69792 1.20313,1.04688 2.23438,1.04688c0.59375,0 1.08333,-0.06771 1.46875,-0.20312c0.39583,-0.14583 0.71354,-0.28646 0.95313,-0.42187l0.57813,1.8125c-0.32292,0.19792 -0.76042,0.38542 -1.3125,0.5625c-0.55208,0.16667 -1.19271,0.25 -1.92187,0.25zM160.41568,54.48808v1.90625h-3.03125v9.64063h-2.32812v-9.64062h-3.03125v-1.90625zM163.71255,60.25371c0,0.5625 0.02083,1.08854 0.0625,1.57813c0.05208,0.48958 0.14063,0.91667 0.26563,1.28125c0.13542,0.35417 0.31771,0.64063 0.54688,0.85938c0.23958,0.20833 0.5625,0.3125 0.96875,0.3125c0.38542,0 0.69792,-0.10417 0.9375,-0.3125c0.23958,-0.21875 0.42188,-0.51042 0.54688,-0.875c0.13542,-0.36458 0.22396,-0.78646 0.26563,-1.26562c0.05208,-0.48958 0.07813,-1.01562 0.07813,-1.57812c0,-0.5625 -0.02604,-1.08854 -0.07812,-1.57812c-0.04167,-0.48958 -0.13021,-0.91146 -0.26562,-1.26562c-0.125,-0.36458 -0.30729,-0.65104 -0.54687,-0.85937c-0.22917,-0.21875 -0.54167,-0.32812 -0.9375,-0.32812c-0.40625,0 -0.72917,0.10938 -0.96875,0.32813c-0.22917,0.20833 -0.41146,0.49479 -0.54687,0.85938c-0.125,0.36458 -0.21354,0.79167 -0.26562,1.28125c-0.04167,0.47917 -0.0625,1 -0.0625,1.5625zM161.38443,60.25371c0,-1.98958 0.36458,-3.48958 1.09375,-4.5c0.73958,-1.02083 1.76563,-1.53125 3.07813,-1.53125c1.35417,0 2.38542,0.51042 3.09375,1.53125c0.70833,1.01042 1.0625,2.51042 1.0625,4.5c0,1.98958 -0.36458,3.49479 -1.09375,4.51563c-0.71875,1.01042 -1.73437,1.51563 -3.04687,1.51563c-1.35417,0 -2.39062,-0.50521 -3.10937,-1.51562c-0.71875,-1.02083 -1.07812,-2.52604 -1.07812,-4.51562zM174.21255,54.36308c0.65625,0 1.25,0.07292 1.78125,0.21875c0.53125,0.14583 0.98958,0.375 1.375,0.6875c0.39583,0.3125 0.69271,0.70833 0.89063,1.1875c0.20833,0.47917 0.3125,1.04167 0.3125,1.6875c0,0.66667 -0.14062,1.27604 -0.42187,1.82813c-0.27083,0.54167 -0.72396,0.95833 -1.35937,1.25c0.21875,0.32292 0.44271,0.68229 0.67188,1.07813c0.23958,0.38542 0.46875,0.79688 0.6875,1.23438c0.22917,0.42708 0.44792,0.85417 0.65625,1.28125c0.20833,0.42708 0.38542,0.83333 0.53125,1.21875h-2.40625c-0.29167,-0.75 -0.625,-1.46875 -1,-2.15625c-0.375,-0.6875 -0.78125,-1.38542 -1.21875,-2.09375h-1.20312v4.25h-2.29687v-11.375c0.22917,-0.05208 0.47396,-0.09896 0.73438,-0.14062c0.27083,-0.04167 0.54167,-0.07292 0.8125,-0.09375c0.28125,-0.02083 0.54688,-0.03646 0.79688,-0.04687c0.25,-0.01042 0.46875,-0.01562 0.65625,-0.01562zM176.2438,58.12871c0,-0.61458 -0.1875,-1.0625 -0.5625,-1.34375c-0.375,-0.29167 -0.86458,-0.4375 -1.46875,-0.4375c-0.09375,0 -0.20312,0.00521 -0.32812,0.01563c-0.125,0.01042 -0.25,0.02604 -0.375,0.04688v3.46875h0.51563c0.78125,0 1.34375,-0.15104 1.6875,-0.45312c0.35417,-0.3125 0.53125,-0.74479 0.53125,-1.29687zM195.4938,66.03496c-0.52083,-1.28125 -1.08854,-2.55729 -1.70312,-3.82812c-0.61458,-1.28125 -1.28125,-2.5625 -2,-3.84375v7.67188h-2.0625v-11.54687h1.84375c0.35417,0.54167 0.70313,1.13542 1.04688,1.78125c0.34375,0.63542 0.68229,1.27083 1.01563,1.90625c0.33333,0.63542 0.63542,1.25521 0.90625,1.85938c0.28125,0.59375 0.52604,1.11458 0.73438,1.5625v-7.10937h2.0625v11.54688zM201.02505,60.25371c0,0.5625 0.02083,1.08854 0.0625,1.57813c0.05208,0.48958 0.14063,0.91667 0.26563,1.28125c0.13542,0.35417 0.31771,0.64063 0.54688,0.85938c0.23958,0.20833 0.5625,0.3125 0.96875,0.3125c0.38542,0 0.69792,-0.10417 0.9375,-0.3125c0.23958,-0.21875 0.42188,-0.51042 0.54688,-0.875c0.13542,-0.36458 0.22396,-0.78646 0.26563,-1.26562c0.05208,-0.48958 0.07813,-1.01562 0.07813,-1.57812c0,-0.5625 -0.02604,-1.08854 -0.07812,-1.57812c-0.04167,-0.48958 -0.13021,-0.91146 -0.26562,-1.26562c-0.125,-0.36458 -0.30729,-0.65104 -0.54687,-0.85937c-0.22917,-0.21875 -0.54167,-0.32812 -0.9375,-0.32812c-0.40625,0 -0.72917,0.10938 -0.96875,0.32813c-0.22917,0.20833 -0.41146,0.49479 -0.54687,0.85938c-0.125,0.36458 -0.21354,0.79167 -0.26562,1.28125c-0.04167,0.47917 -0.0625,1 -0.0625,1.5625zM198.69693,60.25371c0,-1.98958 0.36458,-3.48958 1.09375,-4.5c0.73958,-1.02083 1.76563,-1.53125 3.07813,-1.53125c1.35417,0 2.38542,0.51042 3.09375,1.53125c0.70833,1.01042 1.0625,2.51042 1.0625,4.5c0,1.98958 -0.36458,3.49479 -1.09375,4.51563c-0.71875,1.01042 -1.73437,1.51563 -3.04687,1.51563c-1.35417,0 -2.39062,-0.50521 -3.10937,-1.51562c-0.71875,-1.02083 -1.07812,-2.52604 -1.07812,-4.51562zM211.52505,54.36308c0.65625,0 1.25,0.07292 1.78125,0.21875c0.53125,0.14583 0.98958,0.375 1.375,0.6875c0.39583,0.3125 0.69271,0.70833 0.89063,1.1875c0.20833,0.47917 0.3125,1.04167 0.3125,1.6875c0,0.66667 -0.14062,1.27604 -0.42187,1.82813c-0.27083,0.54167 -0.72396,0.95833 -1.35937,1.25c0.21875,0.32292 0.44271,0.68229 0.67188,1.07813c0.23958,0.38542 0.46875,0.79688 0.6875,1.23438c0.22917,0.42708 0.44792,0.85417 0.65625,1.28125c0.20833,0.42708 0.38542,0.83333 0.53125,1.21875h-2.40625c-0.29167,-0.75 -0.625,-1.46875 -1,-2.15625c-0.375,-0.6875 -0.78125,-1.38542 -1.21875,-2.09375h-1.20312v4.25h-2.29687v-11.375c0.22917,-0.05208 0.47396,-0.09896 0.73438,-0.14062c0.27083,-0.04167 0.54167,-0.07292 0.8125,-0.09375c0.28125,-0.02083 0.54688,-0.03646 0.79688,-0.04687c0.25,-0.01042 0.46875,-0.01562 0.65625,-0.01562zM213.5563,58.12871c0,-0.61458 -0.1875,-1.0625 -0.5625,-1.34375c-0.375,-0.29167 -0.86458,-0.4375 -1.46875,-0.4375c-0.09375,0 -0.20312,0.00521 -0.32812,0.01563c-0.125,0.01042 -0.25,0.02604 -0.375,0.04688v3.46875h0.51563c0.78125,0 1.34375,-0.15104 1.6875,-0.45312c0.35417,-0.3125 0.53125,-0.74479 0.53125,-1.29687zM219.85318,54.48808c0.09375,0.26042 0.20313,0.59896 0.32813,1.01563c0.13542,0.40625 0.27604,0.84896 0.42188,1.32813c0.14583,0.46875 0.29167,0.94792 0.4375,1.4375c0.15625,0.47917 0.30208,0.92188 0.4375,1.32813c0.14583,-0.45833 0.29688,-0.93229 0.45313,-1.42187c0.16667,-0.48958 0.32292,-0.96354 0.46875,-1.42187c0.15625,-0.45833 0.29688,-0.88542 0.42188,-1.28125c0.125,-0.39583 0.23958,-0.72396 0.34375,-0.98437h1.89063c0.09375,1.01042 0.17708,1.99479 0.25,2.95313c0.08333,0.95833 0.15104,1.90625 0.20313,2.84375c0.0625,0.9375 0.10938,1.88021 0.14063,2.82813c0.04167,0.94792 0.07813,1.92188 0.10938,2.92188h-2.10937l0.10938,-8.96875l-1.42187,4.89063h-1.67187l-1.375,-4.89062l0.09375,8.96875h-2.10937c0.04167,-0.94792 0.08333,-1.93229 0.125,-2.95312c0.04167,-1.02083 0.08854,-2.03125 0.14063,-3.03125c0.05208,-1.01042 0.10938,-1.98437 0.17188,-2.92187c0.07292,-0.94792 0.15104,-1.82812 0.23438,-2.64062zM232.88443,66.03496l-0.54687,-2.67187h-3.07812l-0.51562,2.67188h-2.39062c0.54167,-2.28125 1.09375,-4.35417 1.65625,-6.21875c0.5625,-1.875 1.10417,-3.65104 1.625,-5.32812h2.5c0.54167,1.6875 1.08333,3.47917 1.625,5.375c0.54167,1.89583 1.06771,3.95313 1.57813,6.17188zM230.82193,56.72246c-0.125,0.4375 -0.23958,0.85417 -0.34375,1.25c-0.10417,0.38542 -0.20312,0.77083 -0.29687,1.15625c-0.09375,0.375 -0.18229,0.75521 -0.26562,1.14063c-0.07292,0.38542 -0.15104,0.78125 -0.23437,1.1875h2.26563c-0.07292,-0.40625 -0.15104,-0.80208 -0.23437,-1.1875c-0.07292,-0.38542 -0.15625,-0.76562 -0.25,-1.14062c-0.08333,-0.38542 -0.18229,-0.77083 -0.29687,-1.15625c-0.10417,-0.39583 -0.21875,-0.8125 -0.34375,-1.25zM244.08755,66.03496h-7.25v-11.54687h2.3125v9.64063h4.9375z" fill="#000000" fill-rule="nonzero"/></g></g></svg>